<svg width="67" height="75" viewBox="0 0 67 75" fill="none" xmlns="http://www.w3.org/2000/svg">
<path d="M46.6786 6.31567C46.905 6.35142 50.0748 8.26996 51.5286 9.41394C51.9099 9.71185 53.5186 11.1299 53.5901 11.2014C54.5553 12.0236 55.4133 12.965 56.307 13.8588C56.5335 14.0852 59.2742 17.3979 60.1084 18.5896C62.7062 22.3313 64.5889 26.4186 65.7567 30.8158C66.7101 34.3907 67.139 38.0252 66.9603 41.7312C66.722 46.7838 65.435 51.5622 63.0756 56.0428C61.8601 58.3665 60.4063 60.5353 58.6903 62.5134C58.2613 63.0139 57.022 64.3247 56.8433 64.4796C56.4977 64.7775 56.164 65.0873 55.8423 65.4091C55.3299 65.8977 54.7817 66.3386 54.2336 66.7795C53.5544 67.3395 52.8394 67.8639 52.1244 68.3763C50.6348 69.4487 49.0261 70.3306 47.3459 71.0932C44.8792 72.2253 42.3053 73.0594 39.636 73.548C34.4881 74.4894 29.3998 74.3106 24.3711 72.8449C22.9292 72.4278 21.535 71.9035 20.1765 71.2958C17.9839 70.3067 15.9343 69.0913 14.0038 67.6494C12.6096 66.6126 11.2988 65.4806 10.0833 64.2413C8.28396 62.4181 6.68716 60.4161 5.31678 58.2473C3.29099 55.0537 1.83719 51.6218 0.943463 47.9516C0.0973992 44.5196 -0.164762 41.052 0.0973985 37.5366C0.45489 32.7224 1.6942 28.1584 3.79148 23.8209C4.81629 21.6997 6.01985 19.6978 7.39023 17.7912C8.36738 16.4327 9.4041 15.1219 10.5242 13.8826C11.6325 12.7029 13.7774 10.6294 14.6116 9.84293C16.5778 8.1508 18.7346 6.32759 18.7346 6.32759C18.7346 6.32759 14.9691 10.2719 12.6811 13.7277C12.2164 14.4546 11.7755 15.1815 11.3584 15.9441C9.79735 18.8517 8.71295 21.95 8.1648 25.2151C7.54514 28.8615 7.70006 32.496 8.66529 36.0828C9.3326 38.5495 10.3336 40.8732 11.7159 43.0301C12.7764 44.6865 14.123 46.0807 15.6602 47.2962C17.0068 48.3567 18.4486 49.2624 19.8548 50.2395C20.9511 51.0141 22.0593 51.7648 23.0603 52.6705C24.4783 53.9455 25.7176 55.3993 26.814 56.9604C29.2926 60.4995 30.9966 64.3843 31.9023 68.6146C32.1287 69.699 32.3193 70.8072 32.4742 71.9035C32.4981 72.0465 32.5219 72.2133 32.5219 72.2133H34.4643C34.4643 72.2133 34.4881 72.0704 34.512 71.9393C34.7384 70.414 35.0005 68.9006 35.3819 67.411C35.7036 66.1598 36.0968 64.9443 36.5735 63.7408C37.7175 60.8094 39.2428 58.1043 41.1732 55.6257C42.627 53.7548 44.3668 52.1819 46.3211 50.8472C47.5842 49.9774 48.8712 49.1551 50.1105 48.2614C51.5762 47.2008 52.9347 46.033 54.0906 44.6388C55.2584 43.2327 56.164 41.6716 56.9148 40.0152C57.9634 37.7273 58.6665 35.3321 58.9763 32.8416C59.2981 30.1961 59.2385 27.5388 58.738 24.9172C58.2852 22.5101 57.594 20.1864 56.5692 17.958C55.8781 16.4565 55.0916 15.0146 54.1621 13.6443C52.2555 10.8201 50.1701 8.6632 47.334 6.78041C47.2029 6.697 46.905 6.45867 46.6786 6.31567Z" fill="#289225"/>
<path d="M18.6634 12.6433C18.5919 12.7624 18.568 12.7982 18.5323 12.8578C16.8878 15.396 15.8273 18.1367 15.4102 21.1397C14.9574 24.4286 15.3745 27.5864 16.7568 30.6132C17.579 32.4126 18.7945 33.9021 20.3674 35.1057C21.285 35.8087 22.2502 36.4403 23.2154 37.0838C23.847 37.5128 24.4786 37.9299 25.0863 38.3827C26.6235 39.5267 27.839 40.9447 28.7447 42.6368C30.1865 45.3419 31.2352 48.178 31.7357 51.2047C31.9144 52.301 32.0097 53.3973 32.0217 54.4936C32.0693 56.9961 32.0455 59.4866 32.1289 61.9891C32.1527 62.6206 32.1766 63.2641 32.2004 63.8957C32.2004 64.0029 32.2481 65.0992 32.2242 65.3376C32.2004 65.0754 32.0693 64.0744 32.0574 63.991C31.8906 62.8351 31.6999 61.6912 31.4258 60.5472C31.0088 58.8312 30.3534 57.1987 29.5669 55.6138C28.9115 54.2792 28.1369 53.0041 27.2432 51.8125C26.2899 50.5374 25.1459 49.453 23.9185 48.4401C22.4528 47.2247 20.999 45.9973 19.6763 44.6269C18.8779 43.7927 18.1391 42.899 17.4598 41.9695C15.7796 39.6577 14.5403 37.1434 13.7657 34.3907C12.9793 31.5546 12.7767 28.6827 13.1223 25.7632C13.5393 22.2002 14.6118 18.8517 16.3873 15.7415C17.15 14.1924 18.7349 12.4764 18.7349 12.4764L18.6634 12.6433Z" fill="#289225"/>
<path d="M48.3584 12.5002C51.1826 16.5876 51.9333 18.1129 52.7675 20.5796C53.9114 23.9638 54.2809 27.4434 53.9115 30.9945C53.6493 33.5327 52.9105 35.9398 51.7784 38.2397C51.266 39.2764 50.7179 40.2893 50.0505 41.2426C49.7288 41.7192 49.3832 42.1721 49.0376 42.6368C48.7278 43.042 48.3942 43.4352 48.0724 43.8285C47.6792 44.2932 47.2383 44.7222 46.8212 45.175C46.4875 45.5325 46.1062 45.8304 45.7606 46.176C45.0457 46.891 44.2353 47.4987 43.4608 48.1422C43.1152 48.4282 42.7696 48.7142 42.424 49.0002C41.8759 49.453 41.3397 49.9296 40.8511 50.454C40.2314 51.1213 39.6594 51.8482 39.147 52.5989C37.4787 55.0418 36.2871 57.6872 35.5364 60.5472C35.1908 61.846 35.012 63.1807 34.881 64.5153C34.8571 64.7775 34.8214 65.0516 34.7737 65.3733C34.738 64.4915 34.7976 63.6812 34.8333 62.8589C34.9167 60.6902 34.9525 58.5094 34.9406 56.3288C34.9406 55.4589 34.9406 54.577 34.9882 53.7071C35.0955 51.5145 35.5245 49.3934 36.2156 47.32C36.7518 45.7232 37.4311 44.1859 38.2414 42.6964C39.29 40.754 40.7438 39.2049 42.567 37.9894C43.6872 37.2506 44.8073 36.4999 45.8917 35.7253C46.845 35.0461 47.7268 34.2953 48.4895 33.3897C49.4309 32.2695 50.134 31.0183 50.6702 29.6599C51.5639 27.3719 51.9214 24.9886 51.7665 22.5219C51.6116 19.8407 50.8132 17.3383 49.6335 14.9431C49.4071 14.4664 48.7517 13.1676 48.3584 12.5002Z" fill="#289225"/>
<path d="M33.4513 35.8564C33.2845 34.1881 33.2845 32.4603 33.1773 30.7443C33.07 29.1118 32.7244 27.5388 32.1405 26.0016C31.5805 24.5239 31.0919 23.0225 30.7821 21.4614C30.5199 20.1625 30.4127 18.8517 30.4007 17.5171C30.365 15.1815 30.5557 12.8578 30.9132 10.546C31.1515 9.02071 31.4971 7.53116 31.8307 6.0297C32.2716 4.07541 33.4633 0.0834148 33.5109 0C33.5586 0.0834148 35.7512 7.80524 36.2755 11.7257C36.5854 14.0018 36.6807 16.2897 36.5973 18.5777C36.5139 20.7464 36.073 22.8437 35.3222 24.8814C34.9409 25.9062 34.5357 26.9191 34.2617 27.9797C33.9637 29.1356 33.8208 30.3034 33.7373 31.495C33.642 32.8893 33.4633 35.8207 33.4513 35.8564Z" fill="#289225"/>
<path d="M34.7024 48.5236C34.6905 48.2972 34.6786 48.047 34.6666 47.7848C34.5832 45.4969 34.6071 43.2089 34.5832 40.921C34.5713 39.8962 34.5594 38.8118 34.6309 37.7869C34.7858 35.7254 35.1314 33.8545 36.0489 32.0075C36.6448 30.8039 37.3597 29.6719 38.0509 28.5279C38.9327 27.0741 39.8026 25.6203 40.5533 24.1069C41.3637 22.4505 42.031 20.7346 42.4004 18.9233C42.6983 17.4337 42.746 15.9323 42.5553 14.4189C42.3646 12.9651 41.2445 10.0813 41.2802 9.96216C41.3994 10.0694 43.2941 13.9422 43.8065 15.8727C44.5453 18.6254 44.7241 21.4376 44.4262 24.2618C44.1402 26.8596 43.4252 29.3382 42.317 31.7096C41.4471 33.5685 40.3388 35.2845 39.171 36.9647C38.4322 38.0491 37.6696 39.1216 37.0499 40.2775C36.4422 41.3976 35.9536 42.5535 35.62 43.7928C35.2505 45.1513 34.9765 46.3191 34.8216 47.7014C34.7858 47.9993 34.762 48.0827 34.7024 48.5236Z" fill="#289225"/>
<path d="M32.1878 48.5235C32.1401 47.9992 31.9852 47.2604 31.8899 46.7122C31.6634 45.3657 31.4132 44.031 30.9723 42.7322C30.5314 41.4214 29.876 40.2178 29.1729 39.0381C28.4698 37.8822 27.6953 36.774 26.9445 35.6419C25.7767 33.8664 24.74 32.0193 23.9654 30.0293C22.8215 27.0978 22.3329 24.0592 22.4163 20.9251C22.4759 18.9947 22.7261 17.0881 23.2743 15.2291C23.7033 13.7634 24.7519 11.3682 25.6457 9.93823C24.5732 12.2619 24.1442 14.9908 24.2753 17.0285C24.3706 18.518 24.7281 19.9599 25.2405 21.3661C25.741 22.7364 26.3726 24.0472 27.0518 25.3342C27.8859 26.8833 28.8154 28.3729 29.7211 29.8744C30.5671 31.2924 31.3179 32.7462 31.7826 34.3311C32.2235 35.8326 32.4142 37.3579 32.4618 38.9189C32.5095 40.9566 32.4023 42.9943 32.3069 45.032C32.2593 45.9377 32.2593 46.8433 32.2116 47.749C32.1878 47.9754 32.1997 48.3686 32.1878 48.5235Z" fill="#289225"/>
</svg>
