<svg width="1055" height="834" viewBox="0 0 1055 834" fill="none" xmlns="http://www.w3.org/2000/svg">
<path d="M249.383 215.253C261.177 231.333 276.187 242.482 295.271 248.485C316.929 255.345 338.586 254.702 360.673 248.699C370.751 258.99 433.579 320.951 444.944 332.099C444.944 322.023 444.944 309.373 444.944 297.367C426.074 278.929 388.549 241.839 363.675 216.754C357.885 210.966 352.31 204.963 345.877 199.817C335.584 191.241 323.791 185.881 309.638 185.881C295.057 185.881 281.548 185.881 267.395 185.881C256.03 185.881 255.602 172.16 266.752 172.16C281.548 172.16 294.199 172.16 309.853 172.16C326.578 171.731 340.302 179.235 353.597 188.668C363.675 195.743 383.831 217.397 386.833 218.255C388.12 207.535 386.19 197.673 383.617 188.24C375.04 158.224 355.741 137.428 326.793 126.494C306.636 118.775 287.766 119.204 263.964 118.99C261.177 118.99 221.722 118.132 213.788 119.419C217.004 133.354 218.505 145.36 221.936 157.152C227.94 177.734 236.303 197.459 249.383 215.253Z" fill="url(#paint0_linear_3_2)"/>
<path d="M788.677 185.667C774.953 185.667 762.302 185.667 747.935 185.667C735.712 184.809 725.634 188.668 715.985 195.315C710.624 198.959 705.692 203.033 701.189 207.535C675.886 232.62 639.647 268.852 611.771 296.938C611.771 308.945 611.771 319.879 611.771 331.671C641.363 302.298 679.96 263.493 694.97 248.485C710.624 253.416 726.277 253.845 741.931 252.344C752.867 251.272 763.374 248.485 773.452 243.339C794.681 232.191 807.761 213.967 818.268 193.385C828.132 174.09 830.705 163.584 836.709 142.788C837.996 138.285 840.998 126.922 843.357 118.132C825.13 117.489 782.887 115.988 754.582 119.419C739.358 121.348 724.776 125.636 711.696 133.997C689.395 148.148 676.315 165.299 670.096 190.169C668.167 197.673 666.237 209.465 669.239 218.255C677.173 210.322 684.463 202.819 692.397 195.529C705.906 182.88 721.345 173.661 740.43 172.374C748.364 171.946 756.512 171.946 764.446 171.946C774.31 171.946 775.811 171.946 788.462 171.946C797.897 171.946 798.969 185.667 788.677 185.667Z" fill="url(#paint1_linear_3_2)"/>
<path d="M849.79 344.105C835.208 344.105 822.557 353.11 817.411 365.974C784.174 365.974 749.65 365.974 716.413 365.974C690.038 393.631 627.21 459.022 606.625 479.604C584.11 479.604 564.596 479.604 541.652 479.604C541.652 460.951 541.652 442.942 541.652 424.289C565.025 424.289 588.827 424.289 611.771 424.289C650.154 382.911 691.754 341.747 730.137 302.084C762.087 302.084 791.464 302.084 821.485 302.084C827.918 310.66 837.996 316.234 849.361 316.234C868.659 316.234 884.313 300.583 884.313 281.287C884.313 261.992 868.659 246.341 849.361 246.341C830.491 246.341 815.266 261.349 814.623 280.001C814.194 280.001 813.765 280.001 813.336 280.001C781.6 280.001 748.793 280.001 716.199 280.001C677.816 320.093 640.291 360.4 602.551 399.848C582.18 399.848 561.594 399.848 541.438 399.848C541.438 382.697 541.438 364.687 541.438 346.893C559.236 346.893 577.033 346.893 593.974 346.893C593.974 332.528 593.974 310.66 593.974 301.869C587.112 301.869 579.178 301.869 572.102 301.869C572.102 310.016 572.102 317.092 572.102 324.595C562.452 324.595 551.087 324.595 541.438 324.595C541.438 291.364 541.438 258.561 541.438 226.831C557.306 210.537 566.312 201.318 582.394 184.595C592.687 173.875 602.551 184.809 594.617 193.385C580.679 208.178 569.743 219.97 556.234 234.549C556.234 246.77 556.234 257.918 556.234 269.71C560.737 269.281 561.809 269.067 564.811 267.995C589.042 260.062 605.124 243.339 616.703 221.471C632.357 191.67 633 159.939 625.924 127.994C619.491 99.051 603.408 75.253 584.11 53.3846C570.815 38.3769 555.805 25.0844 541.652 11.1486C537.364 6.86071 532.646 3.21598 526.857 0.428833C519.78 5.14554 514.634 11.7918 508.416 16.9373C484.185 37.3049 463.6 60.6741 447.517 87.9024C440.87 99.2653 435.08 111.057 431.649 123.921C426.717 141.93 425.216 159.939 427.146 178.592C430.148 206.249 440.441 230.047 460.383 249.342C471.748 260.277 486.973 267.78 502.197 270.782C502.197 262.849 502.626 225.544 502.626 206.463C502.626 198.745 500.482 192.956 494.906 187.382C483.113 176.019 471.962 164.227 460.383 152.436C459.525 151.578 458.668 150.935 458.024 149.863C456.094 147.29 456.738 143.002 459.74 139.786C461.67 137.857 465.529 135.927 468.96 138.5C470.461 139.572 471.105 140.429 472.177 141.501C485.043 153.722 497.908 166.8 509.917 179.878C510.774 180.736 513.991 181.165 516.564 179.021C519.78 176.233 519.78 172.589 519.78 171.731C519.78 159.725 519.78 147.504 519.78 134.855C506.271 120.919 493.405 107.412 479.896 92.6191C476.894 89.4032 478.181 84.9008 480.325 82.9713C483.97 79.5409 489.331 81.0417 491.476 82.9713C493.191 84.6864 511.632 102.91 519.78 111.057C519.78 99.2653 519.78 88.5455 519.78 77.8257C519.78 71.6082 523.64 68.178 528.572 67.9636C533.504 67.9636 536.506 72.0371 536.506 77.397C536.506 83.8289 536.506 90.4751 536.506 97.1214C536.506 106.769 536.506 149.22 536.506 159.725C542.296 154.151 565.025 130.996 573.603 122.635C575.747 120.491 580.893 116.417 585.611 120.705C589.899 124.35 586.897 129.495 584.967 131.425C568.456 148.576 539.937 179.021 517.422 202.604C517.207 202.819 516.778 203.891 516.778 204.319C516.778 244.84 516.778 283.646 516.778 324.167C509.059 324.167 489.331 324.167 485.686 324.167C485.686 317.735 485.686 308.087 485.686 301.441C479.039 301.441 467.674 301.441 461.884 301.441C461.884 318.807 461.884 338.96 461.884 346.464C470.676 346.464 507.343 346.464 516.778 346.464C516.778 363.83 516.778 382.482 516.778 399.42C495.121 399.42 474.321 399.42 453.736 399.42C414.924 359.542 375.897 320.736 337.085 279.358C302.991 279.358 248.525 279.358 237.375 279.358C236.732 260.705 221.293 245.698 202.637 245.698C183.338 245.698 167.685 261.349 167.685 280.644C167.685 299.94 183.338 315.591 202.637 315.591C214.216 315.591 224.295 310.017 230.728 301.441C262.249 301.441 293.341 301.441 324.648 301.441C363.031 342.176 404.417 383.769 444.515 423.432C456.309 423.432 505.199 423.432 516.993 423.432C516.993 442.299 516.778 460.522 516.993 478.746C492.977 478.746 468.96 478.746 444.515 478.746C406.775 440.155 373.539 404.779 336.442 365.116C302.347 365.116 268.896 365.116 235.445 365.116C235.231 365.116 235.231 365.116 235.016 365.116C229.87 352.252 217.433 343.248 202.637 343.248C183.338 343.248 167.685 358.899 167.685 378.194C167.685 397.49 183.338 413.141 202.637 413.141C218.505 413.141 231.8 402.636 236.088 388.057C264.393 388.057 293.77 388.057 322.29 388.057C332.368 398.562 392.837 461.594 409.777 478.96C402.487 478.96 369.035 478.96 361.959 478.96C353.811 469.741 351.238 466.954 344.376 459.45C333.011 459.45 322.075 459.45 310.925 459.45C310.71 459.45 310.496 459.45 310.281 459.45C306.422 444.443 292.698 433.294 276.616 433.294C257.317 433.294 241.664 448.945 241.664 468.241C241.664 487.536 257.317 503.187 276.616 503.187C292.269 503.187 305.35 492.896 309.853 478.96C317.572 478.96 322.075 478.96 329.58 478.96C336.228 485.821 344.376 493.754 353.382 503.402C406.99 503.402 461.455 503.402 516.993 503.402C516.993 518.195 516.993 546.495 516.993 549.711C481.183 549.711 441.513 549.711 406.132 549.711C406.132 555.071 406.132 565.576 406.132 571.365C442.8 571.365 481.397 571.365 516.993 571.365C516.993 578.44 516.993 582.514 516.993 588.302C525.356 588.302 532.861 588.302 541.438 588.302C541.438 582.514 541.438 578.654 541.438 571.365C576.176 571.365 617.132 571.365 652.299 571.365C652.299 563.861 652.299 557.215 652.299 549.711C634.287 549.711 559.665 549.711 541.438 549.711C541.438 534.06 541.438 519.267 541.438 503.187C595.046 503.187 648.653 503.187 701.403 503.187C708.908 494.826 716.414 486.035 723.061 478.746C730.352 478.746 734.426 478.746 742.574 478.746C747.077 492.896 760.157 502.973 775.811 502.973C795.11 502.973 810.763 487.322 810.763 468.026C810.763 448.731 795.11 433.08 775.811 433.08C759.514 433.08 746.005 444.228 742.145 459.236C730.995 459.236 719.63 459.236 709.766 459.236C700.331 468.669 697.758 471.242 690.253 478.746C674.814 478.746 659.804 478.746 642.006 478.746C673.742 446.372 701.403 417.429 729.923 387.842C759.943 387.842 787.605 387.842 816.338 387.842C820.627 402.421 833.922 412.927 849.79 412.927C869.088 412.927 884.742 397.276 884.742 377.98C884.742 358.684 869.088 344.105 849.79 344.105ZM849.575 268.424C856.866 268.424 862.655 274.427 862.655 281.502C862.655 288.577 856.651 294.58 849.575 294.58C842.499 294.58 836.495 288.577 836.495 281.502C836.495 274.427 842.284 268.424 849.575 268.424ZM203.066 294.58C195.775 294.58 189.986 288.577 189.986 281.502C189.986 274.427 195.99 268.424 203.066 268.424C210.142 268.424 216.146 274.427 216.146 281.502C216.146 288.577 210.357 294.58 203.066 294.58ZM202.852 392.13C195.561 392.13 189.771 386.127 189.771 379.052C189.771 371.977 195.775 365.974 202.852 365.974C209.928 365.974 215.932 371.977 215.932 379.052C215.932 386.127 210.142 392.13 202.852 392.13ZM276.83 482.176C269.54 482.176 263.75 476.173 263.75 469.098C263.75 462.023 269.754 456.02 276.83 456.02C283.906 456.02 289.911 462.023 289.911 469.098C289.911 476.173 284.121 482.176 276.83 482.176ZM775.811 455.806C783.102 455.806 788.891 461.809 788.891 468.884C788.891 475.959 782.887 481.962 775.811 481.962C768.735 481.962 762.731 475.959 762.731 468.884C762.731 461.809 768.52 455.806 775.811 455.806ZM849.79 392.13C842.499 392.13 836.709 386.127 836.709 379.052C836.709 371.977 842.713 365.974 849.79 365.974C856.866 365.974 862.87 371.977 862.87 379.052C862.87 386.127 857.08 392.13 849.79 392.13Z" fill="url(#paint2_linear_3_2)"/>
<path d="M304.706 337.245C304.706 326.739 296.129 318.164 285.622 318.164C275.115 318.164 266.537 326.739 266.537 337.245C266.537 347.75 275.115 356.326 285.622 356.326C296.129 356.326 304.706 347.75 304.706 337.245ZM278.331 337.245C278.331 333.171 281.548 329.955 285.622 329.955C289.696 329.955 292.913 333.171 292.913 337.245C292.913 341.318 289.696 344.534 285.622 344.534C281.548 344.534 278.331 341.104 278.331 337.245Z" fill="url(#paint3_linear_3_2)"/>
<path d="M766.805 317.949C756.298 317.949 747.721 326.525 747.721 337.03C747.721 347.536 756.298 356.112 766.805 356.112C777.312 356.112 785.889 347.536 785.889 337.03C785.889 326.525 777.312 317.949 766.805 317.949ZM766.805 344.534C762.731 344.534 759.514 341.318 759.514 337.245C759.514 333.171 762.731 329.955 766.805 329.955C770.879 329.955 774.095 333.171 774.095 337.245C774.095 341.318 770.665 344.534 766.805 344.534Z" fill="url(#paint4_linear_3_2)"/>
<path d="M733.139 544.566C723.919 544.566 716.414 552.069 716.414 561.288C716.414 570.507 723.919 578.011 733.139 578.011C742.36 578.011 749.865 570.507 749.865 561.288C749.865 552.069 742.36 544.566 733.139 544.566ZM733.139 567.72C729.708 567.72 726.921 564.933 726.921 561.503C726.921 558.073 729.708 555.285 733.139 555.285C736.57 555.285 739.358 558.073 739.358 561.503C739.572 564.719 736.785 567.72 733.139 567.72Z" fill="url(#paint5_linear_3_2)"/>
<path d="M325.506 544.566C316.285 544.566 308.78 552.069 308.78 561.288C308.78 570.507 316.285 578.011 325.506 578.011C334.727 578.011 342.232 570.507 342.232 561.288C342.232 552.069 334.727 544.566 325.506 544.566ZM325.506 567.72C322.075 567.72 319.287 564.933 319.287 561.503C319.287 558.073 322.075 555.285 325.506 555.285C328.937 555.285 331.725 558.073 331.725 561.503C331.939 564.719 329.151 567.72 325.506 567.72Z" fill="url(#paint6_linear_3_2)"/>
<path d="M370.965 561.288L352.739 585.515H389.406V537.062H352.739L370.965 561.288Z" fill="url(#paint7_linear_3_2)"/>
<path d="M669.453 537.062V585.515H705.906L687.894 561.288L705.906 537.062H669.453Z" fill="url(#paint8_linear_3_2)"/>
<path d="M0.643311 760.891L23.1586 748.885C25.5173 753.173 28.9482 756.818 33.6657 759.39C38.3831 761.963 43.7439 763.464 49.9624 763.464C55.5376 763.464 60.2551 762.392 63.9004 760.462C67.5457 758.318 69.2612 755.746 69.2612 752.315C69.2612 749.099 67.7602 746.312 64.9726 744.383C61.9705 742.239 57.0386 740.309 49.9624 738.594L36.2388 734.949C15.2246 729.375 4.93193 718.226 4.93193 701.932C4.93193 691.212 9.00611 682.637 17.1545 675.776C25.3029 668.915 36.0244 665.485 49.3191 665.485C60.0407 665.485 69.4756 667.629 77.624 672.131C85.7724 676.419 91.7764 682.636 95.6362 690.569L73.3354 702.361C71.4055 698.502 68.189 695.5 63.686 693.142C59.1829 690.784 54.251 689.712 49.1047 689.712C44.1728 689.712 40.0986 690.783 37.0966 692.713C34.0945 694.857 32.3791 697.43 32.3791 700.86C32.3791 704.076 33.8801 706.434 36.6677 708.364C39.4553 710.294 44.6016 712.009 51.8923 713.938L65.6159 717.583C86.6301 723.372 96.9228 734.52 96.9228 751.243C96.9228 761.749 92.6342 770.539 83.8425 777.399C75.0508 784.26 63.686 787.691 49.9624 787.691C38.3831 787.691 28.3049 785.332 19.7276 780.615C11.1504 775.684 4.7175 769.038 0.643311 760.891Z" fill="black"/>
<path d="M191.701 785.118L183.767 763.464H137.45L129.516 785.118H100.997L146.885 667.414H175.19L221.078 785.118H191.701ZM145.813 740.738H175.619L160.823 700.003L145.813 740.738Z" fill="black"/>
<path d="M232.443 667.414H259.461L296.344 732.805L333.226 667.414H359.815V785.118H333.011V716.511L307.494 761.963H284.979L258.818 716.082V785.118H232.229V667.414H232.443Z" fill="black"/>
<path d="M379.328 667.414H406.99V785.118H379.328V667.414Z" fill="black"/>
<path d="M461.455 726.159C461.241 714.796 463.814 704.505 469.175 695.071C474.536 685.638 482.041 678.349 491.476 672.989C500.911 667.629 511.632 665.056 523.211 665.27C534.791 665.27 545.298 667.843 554.518 672.774C563.739 677.705 571.03 684.566 575.961 692.927L552.588 706.006C549.801 701.289 545.727 697.43 540.795 694.857C535.863 692.07 530.073 690.784 523.426 690.784C513.348 690.784 505.199 694.214 498.766 700.86C492.333 707.506 489.331 716.082 489.331 726.373C489.331 736.664 492.762 745.24 499.41 752.101C506.057 758.961 514.634 762.392 525.141 762.392C536.935 762.392 545.941 760.033 551.731 755.317V740.738H522.783V718.012H576.819V767.537C572.102 773.326 565.025 778.043 555.376 781.473C545.727 785.332 535.648 787.047 524.712 787.047C515.921 787.047 507.558 785.546 499.624 782.545C491.69 779.329 485.043 775.041 479.253 769.681C473.678 764.321 469.175 757.675 465.958 750.171C462.742 742.667 461.241 734.735 461.455 726.159Z" fill="black"/>
<path d="M696.686 785.118H665.808L643.293 748.456C642.649 748.456 640.934 748.67 638.146 748.67H622.493V785.118H595.26V667.414H638.361C653.585 667.414 665.593 671.059 674.814 678.563C684.035 686.067 688.538 695.929 688.538 708.364C688.538 715.654 686.822 722.3 683.391 728.088C679.96 733.877 675.028 738.379 668.81 742.024L696.686 785.118ZM622.493 691.856V724.658H638.146C653.585 724.658 661.09 719.298 661.09 708.364C661.09 697.43 653.371 692.07 638.146 692.07H622.493V691.856Z" fill="black"/>
<path d="M703.548 726.159C703.548 717.583 704.834 709.65 708.051 701.932C711.053 694.214 715.341 687.782 720.702 682.422C726.063 677.062 732.496 672.774 740.001 669.558C747.506 666.342 755.44 664.842 763.803 665.056C772.166 665.056 780.1 666.557 787.605 669.558C795.11 672.774 801.543 677.062 806.903 682.422C812.264 687.782 816.553 694.428 819.555 701.932C822.557 709.65 824.058 717.583 824.058 726.159C824.058 734.735 822.771 742.667 819.555 750.386C816.553 758.104 812.264 764.536 806.903 769.896C801.543 775.255 795.11 779.543 787.605 782.759C780.1 785.975 772.166 787.476 763.803 787.262C755.44 787.262 747.506 785.761 740.001 782.759C732.496 779.543 726.063 775.255 720.702 769.896C715.341 764.536 711.053 757.889 708.051 750.386C705.049 742.667 703.548 734.735 703.548 726.159ZM787.176 751.458C793.18 744.811 796.182 736.45 796.182 726.373C796.182 716.297 793.18 707.935 787.176 701.074C781.172 694.428 773.238 690.998 763.803 690.998C754.153 690.998 746.434 694.428 740.43 701.074C734.426 707.721 731.424 716.082 731.424 726.373C731.424 736.45 734.426 744.811 740.43 751.458C746.434 758.104 754.368 761.534 763.803 761.534C773.238 761.534 781.172 758.104 787.176 751.458Z" fill="black"/>
<path d="M839.711 731.519V667.414H867.373V731.519C867.373 741.81 869.303 749.528 873.163 754.459C877.022 759.39 883.026 761.749 891.175 761.749C899.323 761.749 905.327 759.39 909.187 754.459C913.047 749.528 914.977 742.024 914.977 731.519V667.414H942.638V731.519C942.638 749.742 938.135 763.464 929.129 773.112C920.123 782.545 907.472 787.476 891.175 787.476C874.878 787.476 862.227 782.759 853.221 773.326C844.215 763.464 839.711 749.742 839.711 731.519Z" fill="black"/>
<path d="M961.508 667.414H1004.61C1020.26 667.414 1032.48 671.274 1041.49 678.992C1050.5 686.71 1055 696.787 1055 709.222C1055 721.657 1050.5 731.733 1041.49 739.451C1032.48 747.17 1020.26 751.029 1004.61 751.029H988.741V785.332H961.508V667.414ZM1027.77 709.222C1027.77 697.859 1020.05 692.07 1004.61 692.07H988.741V726.373H1004.61C1012.54 726.373 1018.33 724.872 1022.19 722.085C1026.05 719.084 1027.77 714.796 1027.77 709.222Z" fill="black"/>
<defs>
<linearGradient id="paint0_linear_3_2" x1="244.205" y1="94.9403" x2="652.163" y2="669.196" gradientUnits="userSpaceOnUse">
<stop offset="0.0895931" stop-color="#48C38B"/>
<stop offset="0.4024" stop-color="#185437"/>
<stop offset="0.7443" stop-color="#0D271C"/>
</linearGradient>
<linearGradient id="paint1_linear_3_2" x1="504.002" y1="-89.6219" x2="911.959" y2="484.634" gradientUnits="userSpaceOnUse">
<stop offset="0.0895931" stop-color="#48C38B"/>
<stop offset="0.4024" stop-color="#185437"/>
<stop offset="0.7443" stop-color="#0D271C"/>
</linearGradient>
<linearGradient id="paint2_linear_3_2" x1="320.514" y1="40.7299" x2="728.472" y2="614.986" gradientUnits="userSpaceOnUse">
<stop offset="0.0895931" stop-color="#48C38B"/>
<stop offset="0.4024" stop-color="#185437"/>
<stop offset="0.7443" stop-color="#0D271C"/>
</linearGradient>
<linearGradient id="paint3_linear_3_2" x1="157.269" y1="156.7" x2="565.227" y2="730.957" gradientUnits="userSpaceOnUse">
<stop offset="0.0895931" stop-color="#48C38B"/>
<stop offset="0.4024" stop-color="#185437"/>
<stop offset="0.7443" stop-color="#0D271C"/>
</linearGradient>
<linearGradient id="paint4_linear_3_2" x1="477.052" y1="-70.4766" x2="885.01" y2="503.779" gradientUnits="userSpaceOnUse">
<stop offset="0.0895931" stop-color="#48C38B"/>
<stop offset="0.4024" stop-color="#185437"/>
<stop offset="0.7443" stop-color="#0D271C"/>
</linearGradient>
<linearGradient id="paint5_linear_3_2" x1="350.161" y1="22.3376" x2="758.119" y2="596.595" gradientUnits="userSpaceOnUse">
<stop offset="0.0895931" stop-color="#48C38B"/>
<stop offset="0.4024" stop-color="#185437"/>
<stop offset="0.7443" stop-color="#0D271C"/>
</linearGradient>
<linearGradient id="paint6_linear_3_2" x1="77.0564" y1="211.606" x2="485.014" y2="785.862" gradientUnits="userSpaceOnUse">
<stop offset="0.0895931" stop-color="#48C38B"/>
<stop offset="0.4024" stop-color="#185437"/>
<stop offset="0.7443" stop-color="#0D271C"/>
</linearGradient>
<linearGradient id="paint7_linear_3_2" x1="107.299" y1="190.127" x2="515.256" y2="764.383" gradientUnits="userSpaceOnUse">
<stop offset="0.0895931" stop-color="#48C38B"/>
<stop offset="0.4024" stop-color="#185437"/>
<stop offset="0.7443" stop-color="#0D271C"/>
</linearGradient>
<linearGradient id="paint8_linear_3_2" x1="319.497" y1="43.223" x2="727.454" y2="617.479" gradientUnits="userSpaceOnUse">
<stop offset="0.0895931" stop-color="#48C38B"/>
<stop offset="0.4024" stop-color="#185437"/>
<stop offset="0.7443" stop-color="#0D271C"/>
</linearGradient>
</defs>
</svg>
